<?xml version="1.0" standalone="no"?>
<!DOCTYPE svg PUBLIC "-//W3C//DTD SVG 20010904//EN"
 "http://www.w3.org/TR/2001/REC-SVG-20010904/DTD/svg10.dtd">
<svg version="1.0" xmlns="http://www.w3.org/2000/svg"
 width="1109.000000pt" height="837.000000pt" viewBox="0 0 1109.000000 837.000000"
 preserveAspectRatio="xMidYMid meet">

<g transform="translate(0.000000,837.000000) scale(0.100000,-0.100000)"
fill="#000000" stroke="none">
<path d="M2846 7354 c-15 -14 -16 -307 -14 -3130 l3 -3114 -902 0 c-806 0
-903 -2 -917 -16 -24 -23 -20 -70 6 -88 20 -14 465 -16 4516 -16 l4493 0 25
25 c27 27 26 59 -4 83 -13 9 -742 12 -3569 12 l-3553 0 10 26 c6 16 10 905 10
2467 l0 2442 602 603 602 602 1823 0 1823 0 0 -304 c0 -335 -1 -330 62 -324
57 5 58 16 56 375 l-3 321 -24 26 -24 26 -2503 0 c-2264 0 -2504 -2 -2518 -16z
m1134 -107 c0 -1 -232 -234 -515 -517 l-515 -515 0 518 0 517 515 0 c283 0
515 -1 515 -3z"/>
</g>
</svg>
