<?xml version="1.0" standalone="no"?>
<!DOCTYPE svg PUBLIC "-//W3C//DTD SVG 20010904//EN"
 "http://www.w3.org/TR/2001/REC-SVG-20010904/DTD/svg10.dtd">
<svg version="1.0" xmlns="http://www.w3.org/2000/svg"
 width="1109.000000pt" height="837.000000pt" viewBox="0 0 1109.000000 837.000000"
 preserveAspectRatio="xMidYMid meet">

<g transform="translate(0.000000,837.000000) scale(0.100000,-0.100000)"
fill="#000000" stroke="none">
<path d="M2846 7354 c-15 -14 -16 -307 -14 -3130 l3 -3114 -902 0 c-806 0
-903 -2 -917 -16 -24 -23 -20 -70 6 -88 20 -14 465 -16 4516 -16 l4493 0 25
25 c27 27 26 59 -4 83 -13 9 -742 12 -3569 12 l-3553 0 10 26 c6 16 10 905 10
2467 l0 2442 602 603 602 602 1823 0 1822 0 3 -308 3 -309 -69 -12 c-38 -6
-107 -29 -154 -51 -71 -33 -99 -55 -166 -123 -124 -126 -176 -251 -176 -427 0
-194 77 -357 225 -477 91 -74 237 -132 333 -133 l32 0 0 -945 0 -945 25 -16
c32 -21 71 -7 85 32 7 16 10 364 10 952 l0 926 52 13 c83 22 191 80 256 138
266 241 267 670 3 908 -86 76 -209 136 -313 152 -45 7 -46 8 -37 34 6 16 9
161 7 344 l-3 315 -24 26 -24 26 -2503 0 c-2264 0 -2504 -2 -2518 -16z m1134
-107 c0 -1 -232 -234 -515 -517 l-515 -515 0 518 0 517 515 0 c283 0 515 -1
515 -3z m4015 -672 c311 -80 490 -397 404 -717 -52 -191 -227 -357 -419 -397
-300 -63 -593 104 -682 389 -50 163 -20 359 76 493 116 164 271 246 466 247
55 0 121 -7 155 -15z"/>
</g>
</svg>
